<svg width="45" height="45" viewBox="0 0 45 45" fill="none" xmlns="http://www.w3.org/2000/svg">
<g clip-path="url(#clip0_3_461)">
<g filter="url(#filter0_d_3_461)">
<path d="M9.09667 13.2388C10.3656 11.9828 13.1342 12.6433 15.2964 14.741C17.4489 16.8252 18.1901 19.5301 16.9309 20.7996C15.6838 22.0604 12.903 21.4086 10.7287 19.3196C8.56412 17.2441 7.84715 14.5218 9.09667 13.2388ZM17.7835 7.02357C19.4134 6.24647 21.7462 7.81256 23.0361 10.5139C24.2992 13.2549 24.0305 16.0886 22.4224 16.8705C20.8022 17.6612 18.4816 16.0864 17.216 13.3676C15.9286 10.644 16.1973 7.81038 17.7835 7.02357ZM7.05403 24.1192C7.96426 22.4646 10.7098 22.3226 13.1958 23.7176C15.6502 25.1968 16.9428 27.671 16.0447 29.3169C15.1466 30.9627 12.4229 31.1096 9.9418 29.6701C7.46071 28.2305 6.1827 25.7254 7.05403 24.1192ZM28.923 8.47245C30.7245 8.16633 32.6829 10.1846 33.2444 12.9976C33.8059 15.8106 32.7875 18.341 30.9399 18.6597C29.0922 18.9784 27.1678 16.9562 26.5602 14.1558C26.0424 11.3525 27.0631 8.7998 28.923 8.47245ZM37.3396 24.5236C38.299 25.7618 38.432 27.7962 37.765 29.0719C36.3849 31.7384 32.1619 31.279 29.7442 33.0088C27.3265 34.7386 26.4416 38.996 23.4409 39.3205C21.7511 39.5262 19.6532 38.3654 18.7646 36.7897C17.5395 34.6153 18.9391 31.9759 19.1707 29.5783C19.5176 26.4431 18.1647 21.9849 20.6067 20.2377C23.0366 18.4991 26.8535 21.1125 29.8987 21.9027C32.4294 22.5901 35.6751 22.3769 37.3396 24.5236Z" fill="#FDA04A"/>
<path d="M9.09667 13.2388C10.3656 11.9828 13.1342 12.6433 15.2964 14.741C17.4489 16.8252 18.1901 19.5301 16.9309 20.7996C15.6838 22.0604 12.903 21.4086 10.7287 19.3196C8.56412 17.2441 7.84715 14.5218 9.09667 13.2388ZM17.7835 7.02357C19.4134 6.24647 21.7462 7.81256 23.0361 10.5139C24.2992 13.2549 24.0305 16.0886 22.4224 16.8705C20.8022 17.6612 18.4816 16.0864 17.216 13.3676C15.9286 10.644 16.1973 7.81038 17.7835 7.02357ZM7.05403 24.1192C7.96426 22.4646 10.7098 22.3226 13.1958 23.7176C15.6502 25.1968 16.9428 27.671 16.0447 29.3169C15.1466 30.9627 12.4229 31.1096 9.9418 29.6701C7.46071 28.2305 6.1827 25.7254 7.05403 24.1192ZM28.923 8.47245C30.7245 8.16633 32.6829 10.1846 33.2444 12.9976C33.8059 15.8106 32.7875 18.341 30.9399 18.6597C29.0922 18.9784 27.1678 16.9562 26.5602 14.1558C26.0424 11.3525 27.0631 8.7998 28.923 8.47245ZM37.3396 24.5236C38.299 25.7618 38.432 27.7962 37.765 29.0719C36.3849 31.7384 32.1619 31.279 29.7442 33.0088C27.3265 34.7386 26.4416 38.996 23.4409 39.3205C21.7511 39.5262 19.6532 38.3654 18.7646 36.7897C17.5395 34.6153 18.9391 31.9759 19.1707 29.5783C19.5176 26.4431 18.1647 21.9849 20.6067 20.2377C23.0366 18.4991 26.8535 21.1125 29.8987 21.9027C32.4294 22.5901 35.6751 22.3769 37.3396 24.5236Z" stroke="#874A38" stroke-width="3"/>
</g>
<path d="M33.5669 29.0067C35.2683 29.2874 36.8098 26.8615 34.8873 25.5829C32.9647 24.3044 34.2998 26.6877 34.0579 27.3695C33.7959 28.1077 31.8656 28.726 33.5669 29.0067Z" fill="white"/>
<path d="M34.8873 25.5829L35.1642 25.1666L35.1642 25.1666L34.8873 25.5829ZM33.5669 29.0067L33.6483 28.5133L33.6483 28.5133L33.5669 29.0067ZM34.0579 27.3695L33.5866 27.2023L33.5866 27.2023L34.0579 27.3695ZM34.6104 25.9993C35.0002 26.2585 35.1802 26.5498 35.2458 26.8164C35.313 27.089 35.2722 27.3834 35.1369 27.6598C34.8553 28.2354 34.2375 28.6106 33.6483 28.5133L33.4855 29.5C34.5977 29.6835 35.6013 28.986 36.0352 28.0993C36.2577 27.6445 36.3481 27.1102 36.2168 26.5771C36.084 26.038 35.7356 25.5466 35.1642 25.1666L34.6104 25.9993ZM33.6483 28.5133C33.4517 28.4809 33.3384 28.4481 33.2796 28.4238C33.207 28.3939 33.2825 28.4044 33.3368 28.5136C33.4093 28.6595 33.3539 28.7823 33.3435 28.8011C33.3387 28.8099 33.3511 28.7869 33.417 28.7255C33.4774 28.6692 33.5546 28.606 33.6522 28.5275C33.7448 28.4531 33.8548 28.3655 33.9594 28.2747C34.151 28.1082 34.4156 27.8566 34.5291 27.5367L33.5866 27.2023C33.5692 27.2515 33.4942 27.3541 33.3034 27.5199C33.2168 27.5952 33.1249 27.6683 33.0255 27.7483C32.931 27.8242 32.8263 27.9091 32.7354 27.9938C32.6499 28.0734 32.5416 28.1842 32.4675 28.3188C32.3879 28.4635 32.3146 28.704 32.4414 28.9589C32.5498 29.1771 32.7516 29.2877 32.898 29.3482C33.0583 29.4144 33.2568 29.4623 33.4855 29.5L33.6483 28.5133ZM34.5291 27.5367C34.5943 27.3528 34.594 27.1576 34.5827 27.0071C34.5707 26.8473 34.5409 26.6788 34.5091 26.5229C34.4391 26.1802 34.3672 25.916 34.3387 25.6809C34.3324 25.6288 34.3297 25.588 34.3297 25.557C34.3296 25.525 34.3323 25.5131 34.3318 25.5154C34.3297 25.5248 34.2935 25.645 34.1518 25.6966C34.0554 25.7317 34.0202 25.6898 34.133 25.7324C34.2303 25.7692 34.384 25.8487 34.6104 25.9993L35.1642 25.1666C34.91 24.9975 34.6848 24.8718 34.4862 24.7969C34.303 24.7277 34.0549 24.6676 33.8094 24.757C33.5188 24.8629 33.3977 25.1099 33.3558 25.2977C33.317 25.4716 33.3282 25.6549 33.346 25.8013C33.3807 26.0874 33.477 26.467 33.5293 26.7229C33.5586 26.8664 33.5783 26.9859 33.5855 27.0819C33.5934 27.1873 33.5819 27.2158 33.5866 27.2023L34.5291 27.5367Z" fill="white"/>
<ellipse cx="9.29326" cy="26.1962" rx="0.490768" ry="1.125" transform="rotate(-32.734 9.29326 26.1962)" fill="white"/>
</g>
<defs>
<filter id="filter0_d_3_461" x="2.77991" y="2.82251" width="42.4003" height="43.5217" filterUnits="userSpaceOnUse" color-interpolation-filters="sRGB">
<feFlood flood-opacity="0" result="BackgroundImageFix"/>
<feColorMatrix in="SourceAlpha" type="matrix" values="0 0 0 0 0 0 0 0 0 0 0 0 0 0 0 0 0 0 127 0" result="hardAlpha"/>
<feOffset dx="1.5" dy="1.5"/>
<feGaussianBlur stdDeviation="2"/>
<feComposite in2="hardAlpha" operator="out"/>
<feColorMatrix type="matrix" values="0 0 0 0 0 0 0 0 0 0 0 0 0 0 0 0 0 0 0.25 0"/>
<feBlend mode="normal" in2="BackgroundImageFix" result="effect1_dropShadow_3_461"/>
<feBlend mode="normal" in="SourceGraphic" in2="effect1_dropShadow_3_461" result="shape"/>
</filter>
<clipPath id="clip0_3_461">
<rect width="45" height="45" fill="white"/>
</clipPath>
</defs>
</svg>
